<svg xmlns="http://www.w3.org/2000/svg" viewBox="0 0 49.89 49.89"><defs><style>.cls-1{fill:#e90000;}.cls-2{fill:#fff;}</style></defs><g id="Capa_2" data-name="Capa 2"><g id="Capa_1-2" data-name="Capa 1"><circle class="cls-1" cx="24.94" cy="24.94" r="24.94"/><path class="cls-2" d="M8.19,29.6h0A1.2,1.2,0,0,1,7,30.05c-1.9,0-3.8,0-5.7,0H1.11c0-.08.07-.11.11-.16,2.11-2.1,4.2-4.21,6.31-6.3,1-1,2-2,3-2.94a8.43,8.43,0,0,1,4.13-2.14,19,19,0,0,1,3.61-.29H39.86c-.19.2-.36.38-.53.54l-3.84,3.8a.41.41,0,0,1-.31.09H19.5a17.19,17.19,0,0,0-3,.19A5,5,0,0,0,14.05,24c-.08.21-.29.29-.43.44l-.8.77c-.81.81-1.64,1.59-2.45,2.4l-1,1c-.05,0-.08.09-.13.13a.8.8,0,0,0-.13.13c-.1.12-.24.2-.35.32A3.18,3.18,0,0,1,8.19,29.6Z"/><path class="cls-2" d="M14.38,24.58a4.68,4.68,0,0,1,2.26-1.06,12.19,12.19,0,0,1,2.09-.16H31.2c1.09,0,2.18,0,3.27,0h.19l0,0a1.22,1.22,0,0,0-.17.15C33.25,24.82,32,26.1,30.7,27.39a.37.37,0,0,1-.3.1H19.59a8.88,8.88,0,0,0-1.36.09,2.85,2.85,0,0,0-1.62.93l-1.38,1.4a.4.4,0,0,1-.33.14H9.18c-.07,0-.16.09-.23,0s0-.15.06-.22a3.06,3.06,0,0,1,.37-.35c1.49-1.5,3-3,4.45-4.48A1.5,1.5,0,0,1,14.38,24.58Z"/><path class="cls-2" d="M48.07,18.24l-.14.15L37.24,29.12l-.83.83a.25.25,0,0,1-.2.09H29.08c0-.07,0-.09.07-.13L39.26,19.74l1.43-1.44a.29.29,0,0,1,.22-.1H48S48.05,18.19,48.07,18.24Z"/></g></g></svg>